<?xml version="1.0" encoding="utf-8"?>
<!-- Generator: Adobe Illustrator 17.0.0, SVG Export Plug-In . SVG Version: 6.00 Build 0)  -->
<!DOCTYPE svg PUBLIC "-//W3C//DTD SVG 1.1//EN" "http://www.w3.org/Graphics/SVG/1.1/DTD/svg11.dtd">
<svg version="1.1" id="图层_1" xmlns="http://www.w3.org/2000/svg"  x="0px" y="0px"
	 width="13px" height="28px" viewBox="0 0 13 28" enable-background="new 0 0 13 28" xml:space="preserve">
<path fill="#FFFFFF" d="M6.5,13.029c3.314,0,6-2.686,6-6s-2.686-6-6-6s-6,2.686-6,6S3.186,13.029,6.5,13.029"/>
<g>
	<path fill="#9FA0A0" d="M6.5,13.279c-3.446,0-6.25-2.804-6.25-6.25s2.804-6.25,6.25-6.25s6.25,2.804,6.25,6.25
		S9.946,13.279,6.5,13.279z M6.5,1.279c-3.17,0-5.75,2.58-5.75,5.75s2.58,5.75,5.75,5.75c3.171,0,5.75-2.58,5.75-5.75
		S9.671,1.279,6.5,1.279z"/>
</g>
<path fill="#277DC2" d="M6.5,26.971c3.314,0,6-2.686,6-6s-2.686-6-6-6s-6,2.686-6,6S3.186,26.971,6.5,26.971"/>
<g>
	<path fill="#277DC2" d="M6.5,27.221c-3.446,0-6.25-2.804-6.25-6.25s2.804-6.25,6.25-6.25s6.25,2.803,6.25,6.25
		S9.946,27.221,6.5,27.221z M6.5,15.222c-3.17,0-5.75,2.579-5.75,5.749c0,3.171,2.58,5.75,5.75,5.75c3.171,0,5.75-2.579,5.75-5.75
		C12.25,17.801,9.671,15.222,6.5,15.222z"/>
</g>
<path fill="#FFFFFF" d="M6.5,23.471c1.381,0,2.5-1.119,2.5-2.5c0-1.381-1.119-2.5-2.5-2.5S4,19.59,4,20.971
	C4,22.352,5.119,23.471,6.5,23.471"/>
</svg>
