<?xml version="1.0" encoding="utf-8"?>
<!-- Generator: Adobe Illustrator 17.0.0, SVG Export Plug-In . SVG Version: 6.00 Build 0)  -->
<!DOCTYPE svg PUBLIC "-//W3C//DTD SVG 1.1//EN" "http://www.w3.org/Graphics/SVG/1.1/DTD/svg11.dtd">
<svg version="1.1" id="图层_1" xmlns="http://www.w3.org/2000/svg"  x="0px" y="0px"
	 width="540px" height="324px" viewBox="0 0 540 324" enable-background="new 0 0 540 324" xml:space="preserve">
<rect y="-0.278" fill="#EFEFEF" width="540" height="324.574"/>
<path fill="#FFFFFF" d="M325.891,198.732v-73.445c0-1.193-0.963-2.161-2.15-2.161H216.259c-1.187,0-2.15,0.968-2.15,2.161v73.445
	c0,1.193,0.963,2.161,2.15,2.161h107.481C324.927,200.893,325.891,199.925,325.891,198.732 M321.59,196.574H218.41v-69.126H321.59
	V196.574z M221.871,193.389c0,0-0.078,0.107-0.19,0.282h96.64c-0.008-0.011-0.015-0.017-0.021-0.03l-32.984-44.9
	c0,0-3.91-5.322-7.818,0l-20.411,27.786l-7.508-10.227c0,0-3.91-5.32-7.818,0L221.871,193.389z M240.395,142.673
	c0-4.49-3.621-8.132-8.09-8.132c-4.469,0-8.088,3.642-8.088,8.132c0,4.49,3.619,8.13,8.088,8.13
	C236.773,150.803,240.395,147.163,240.395,142.673"/>
</svg>
