<?xml version="1.0" encoding="utf-8"?>
<!-- Generator: Adobe Illustrator 17.0.0, SVG Export Plug-In . SVG Version: 6.00 Build 0)  -->
<!DOCTYPE svg PUBLIC "-//W3C//DTD SVG 1.1//EN" "http://www.w3.org/Graphics/SVG/1.1/DTD/svg11.dtd">
<svg version="1.1" id="图层_1" xmlns="http://www.w3.org/2000/svg"  x="0px" y="0px"
	 width="13px" height="29px" viewBox="0 0 13 29" enable-background="new 0 0 13 29" xml:space="preserve">
<path fill="#FFFFFF" d="M1.25,0.25c0,0-1,0-1,1v10.5c0,0,0,1,1,1h10.5c0,0,1,0,1-1V1.25c0,0,0-1-1-1H1.25z"/>
<path fill="#9E9E9F" d="M11.75,13H1.25C0.261,13,0,12.182,0,11.75V1.25C0,0.261,0.818,0,1.25,0h10.5C12.738,0,13,0.818,13,1.25v10.5
	C13,12.739,12.183,13,11.75,13z M1.25,0.5C1.126,0.501,0.5,0.544,0.5,1.25v10.5c0.001,0.124,0.044,0.75,0.75,0.75h10.499
	c0.128-0.001,0.751-0.046,0.751-0.75V1.25c-0.001-0.124-0.044-0.75-0.75-0.75H1.25z"/>
<path fill="#277DC2" d="M1.25,16.5c0,0-1,0-1,1V28c0,0,0,1,1,1h10.5c0,0,1,0,1-1V17.5c0,0,0-1-1-1H1.25z"/>
<path fill="none" stroke="#277DC2" stroke-width="0.5" d="M1.25,16.5c0,0-1,0-1,1V28c0,0,0,1,1,1h10.5c0,0,1,0,1-1V17.5c0,0,0-1-1-1
	H1.25z"/>
<g>
	<path fill="#FFFFFF" d="M6.057,25.593c-0.123,0-0.247-0.045-0.343-0.137l-2.307-2.178c-0.201-0.189-0.21-0.506-0.021-0.706
		c0.19-0.201,0.506-0.211,0.707-0.021l1.944,1.835l4.09-4.323c0.189-0.199,0.506-0.21,0.707-0.02c0.2,0.189,0.209,0.506,0.02,0.707
		L6.42,25.437C6.322,25.54,6.189,25.593,6.057,25.593z"/>
</g>
</svg>
