<?xml version="1.0" encoding="utf-8"?>
<!-- Generator: Adobe Illustrator 17.0.0, SVG Export Plug-In . SVG Version: 6.00 Build 0)  -->
<!DOCTYPE svg PUBLIC "-//W3C//DTD SVG 1.1//EN" "http://www.w3.org/Graphics/SVG/1.1/DTD/svg11.dtd">
<svg version="1.1" id="图层_1" xmlns="http://www.w3.org/2000/svg"  x="0px" y="0px"
	 width="192px" height="29px" viewBox="0 0 192 29" enable-background="new 0 0 192 29" xml:space="preserve">
<rect x="93.237" y="8.775" fill="#FFFFFF" width="0.353" height="12.45"/>
<g>
	<path fill="#FFFFFF" d="M103.656,11.457l2.66-3.845l0.804,0.556l-2.66,3.844L103.656,11.457z M103.671,14.395l2.66-3.888v10.408
		h-0.994v-7.177l-0.833,1.228L103.671,14.395z M114.444,7.773l-0.381,1.564h2.909v0.994h-0.409
		c-0.219,2.134-0.541,4.035-1.038,5.745l1.506,4.4l-0.936,0.321l-1.097-3.187c-0.468,1.17-1.022,2.251-1.725,3.26l-0.804-0.57v0.629
		h-0.22c-0.833,0-1.534-0.716-1.534-1.564v-2.528c0-0.321-0.234-0.585-0.526-0.585h-1.214c-0.292,0-0.541,0.264-0.541,0.6
		l-0.248,4.034l-0.994-0.059l0.249-4.02c0.015-0.848,0.701-1.55,1.534-1.55h1.214c0.833,0,1.52,0.717,1.52,1.579v2.528
		c0,0.322,0.234,0.57,0.541,0.57h0.22v0.336c0.862-1.242,1.506-2.631,2.003-4.195l-1.608-4.721l0.936-0.322l1.126,3.318
		c0.277-1.242,0.482-2.573,0.628-4.02h-2.733l0.644-2.763L114.444,7.773z M110.146,7.569v3.757h0.365
		c0.292,0,0.526-0.249,0.526-0.57V8.007h0.994v2.749c0,0.862-0.688,1.564-1.521,1.564h-1.725c-0.862,0-1.535-0.702-1.535-1.564
		V8.007h0.994v2.749c0,0.321,0.248,0.57,0.541,0.57h0.365V7.569H110.146z M107.398,13.226h4.502v0.994h-4.502V13.226z"/>
	<path fill="#FFFFFF" d="M118.324,20.9l0.351-11.724c0.029-0.833,0.657-1.491,1.491-1.491h2.061c0.862,0,1.579,0.716,1.579,1.579
		v9.779c0,1.009-0.833,1.842-1.842,1.842h-0.629v-0.994h0.629c0.468,0,0.848-0.38,0.848-0.848v-2.075h-3.377l-0.117,3.961
		L118.324,20.9z M119.464,15.975h3.348v-3.143h-3.26L119.464,15.975z M119.581,11.837h3.23V9.265c0-0.322-0.263-0.585-0.585-0.585
		h-2.061c-0.293,0-0.482,0.22-0.497,0.512L119.581,11.837z M124.58,20.915V9.309c0-0.877,0.717-1.564,1.579-1.564h3.669
		c0.877,0,1.564,0.716,1.564,1.564v1.754c0,0.863-0.688,1.579-1.564,1.579h-1.974v-0.994h1.974c0.307,0,0.57-0.263,0.57-0.585V9.309
		c0-0.307-0.264-0.57-0.57-0.57h-3.669c-0.321,0-0.585,0.263-0.585,0.57v4.005h5.848c-0.6,1.695-1.287,3.172-2.105,4.458l2.31,2.499
		l-0.716,0.673l-2.164-2.339c-0.643,0.877-1.374,1.652-2.178,2.339l-0.658-0.76c0.819-0.702,1.535-1.462,2.164-2.31l-2.5-2.719
		v5.759H124.58z M126.13,14.308l2.515,2.733c0.525-0.833,0.964-1.739,1.359-2.733H126.13z"/>
	<path fill="#FFFFFF" d="M134.483,10.171l5.628,1.696c1.403-0.541,2.559-1.243,3.377-2.061h-9.399l1.447-2.31l0.833,0.541
		l-0.482,0.775h9.561c-0.906,1.389-2.354,2.543-4.122,3.42l4.794,1.447l-0.292,0.95l-5.891-1.783
		c-2.047,0.804-4.4,1.315-6.798,1.476l-0.073-0.994c1.93-0.132,3.786-0.439,5.438-0.907l-4.312-1.315L134.483,10.171z
		 M138.504,14.249c-0.103,0.365-0.22,0.716-0.337,1.052h5.994c0.848,0,1.563,0.688,1.563,1.564v2.324
		c0,0.877-0.716,1.563-1.563,1.563h-3.1v-0.993h3.1c0.307,0,0.555-0.249,0.555-0.57v-2.324c0-0.308-0.248-0.556-0.555-0.556h-6.374
		c-0.848,1.915-2.061,3.421-3.786,4.619l-0.555-0.804c1.417-0.979,2.47-2.236,3.23-3.815h-3.012v-1.009h3.436
		c0.16-0.424,0.292-0.862,0.424-1.33L138.504,14.249z"/>
	<path fill="#FFFFFF" d="M151.33,11.662l-2.223,5.379h2.164v0.994h-3.641l1.652-4.02h-1.71l2.354-6.257l0.95,0.351l-1.843,4.912
		h0.658l0.731-1.74L151.33,11.662z M151.519,20.623h-3.859v-0.994h3.859V20.623z M157.191,7.671v0.965h2.076
		c0.862,0,1.578,0.716,1.578,1.564v0.79c0,0.862-0.716,1.564-1.578,1.564h-6.023l-0.189,8.361l-0.994-0.029l0.248-10.7
		c0.029-0.848,0.717-1.549,1.579-1.549h2.31V7.671H157.191z M153.273,11.559h5.994c0.321,0,0.584-0.249,0.584-0.57V10.2
		c0-0.322-0.263-0.57-0.584-0.57h-5.38c-0.321,0-0.57,0.263-0.585,0.585L153.273,11.559z M159.851,20.944v-2.968h-1.022v2.968
		h-0.994v-2.968h-0.979v2.968h-0.994v-2.968h-1.023v2.968h-0.994v-5.862c0-0.862,0.688-1.564,1.564-1.564h3.889
		c0.877,0,1.563,0.702,1.563,1.564v5.862H159.851z M154.838,16.982h1.023v-2.47h-0.453c-0.307,0-0.57,0.248-0.57,0.57V16.982z
		 M156.855,16.982h0.979v-2.47h-0.979V16.982z M158.829,14.513v2.47h1.022v-1.9c0-0.322-0.248-0.57-0.555-0.57H158.829z"/>
	<path fill="#FFFFFF" d="M164.376,7.803l-0.234,1.564h3.362v0.994h-3.493l-0.453,3.128h0.965v-2.324h0.993v2.324h1.799v0.994h-1.799
		v1.915l1.813-0.673l0.351,0.95l-2.164,0.804v3.45h-0.993v-3.084l-2.12,0.774l-0.351-0.936l2.471-0.906v-2.295h-2.135l0.6-4.123
		h-0.76V9.367h0.906l0.248-1.71L164.376,7.803z M167.753,12.159h7.864v0.994h-0.673v5.234l0.644-0.044l0.059,0.993l-0.702,0.044
		v1.535h-0.994v-1.462l-6.417,0.395l-0.059-0.994l1.038-0.058v-5.643h-0.76V12.159z M173.834,7.627c0.716,0,1.315,0.584,1.315,1.301
		v1.403c0,0.716-0.6,1.316-1.315,1.316h-4.225c-0.702,0-1.301-0.6-1.301-1.316V8.928c0-0.716,0.599-1.301,1.301-1.301H173.834z
		 M169.609,8.622c-0.176,0-0.308,0.131-0.308,0.307v1.403c0,0.176,0.132,0.322,0.308,0.322h4.225c0.175,0,0.307-0.146,0.307-0.322
		V8.928c0-0.175-0.132-0.307-0.307-0.307H169.609z M169.507,14.351h4.443v-1.199h-4.443V14.351z M169.507,16.472h4.443v-1.126
		h-4.443V16.472z M169.507,18.723l4.443-0.278v-0.979h-4.443V18.723z"/>
	<path fill="#FFFFFF" d="M184.292,12.232c-0.117,0.234-0.22,0.438-0.337,0.644h4.342c0.161,0,0.307-0.044,0.409-0.161
		c0.117-0.117,0.176-0.249,0.161-0.395v-0.322h0.994v0.278c0.015,0.438-0.132,0.819-0.453,1.14
		c-0.308,0.292-0.673,0.453-1.111,0.453h-2.31l4.005,1.974l-0.424,0.877l-5.803-2.851h-0.497c-1.17,1.374-2.909,2.149-6.169,2.588
		l-0.132-0.994c2.354-0.322,3.83-0.804,4.854-1.594h-4.868v-0.994h5.818c0.233-0.322,0.438-0.673,0.629-1.067L184.292,12.232z
		 M177.041,9.191c0-0.862,0.717-1.579,1.579-1.579h2.923c0.849,0,1.564,0.716,1.564,1.579v0.833c0,0.877-0.716,1.564-1.564,1.564
		h-2.923c-0.862,0-1.579-0.687-1.579-1.564V9.191z M177.041,18.152c0-0.877,0.717-1.564,1.579-1.564h2.923
		c0.849,0,1.564,0.688,1.564,1.564v1.17c0,0.862-0.716,1.578-1.564,1.578h-2.923c-0.862,0-1.579-0.716-1.579-1.578V18.152z
		 M178.035,10.025c0,0.307,0.263,0.57,0.585,0.57h2.923c0.322,0,0.57-0.263,0.57-0.57V9.191c0-0.321-0.248-0.57-0.57-0.57h-2.923
		c-0.322,0-0.585,0.249-0.585,0.57V10.025z M178.035,19.322c0,0.321,0.263,0.569,0.585,0.569h2.923c0.322,0,0.57-0.248,0.57-0.569
		v-1.17c0-0.307-0.248-0.57-0.57-0.57h-2.923c-0.322,0-0.585,0.264-0.585,0.57V19.322z M183.707,9.191
		c0-0.862,0.701-1.579,1.564-1.579h2.923c0.892,0,1.579,0.716,1.579,1.579v0.833c0,0.877-0.688,1.564-1.579,1.564h-2.923
		c-0.863,0-1.564-0.687-1.564-1.564V9.191z M183.707,18.152c0-0.877,0.701-1.564,1.564-1.564h2.923c0.892,0,1.579,0.688,1.579,1.564
		v1.17c0,0.862-0.688,1.578-1.579,1.578h-2.923c-0.863,0-1.564-0.716-1.564-1.578V18.152z M184.701,10.025
		c0,0.307,0.248,0.57,0.57,0.57h2.923c0.322,0,0.57-0.263,0.57-0.57V9.191c0-0.321-0.248-0.57-0.57-0.57h-2.923
		c-0.322,0-0.57,0.249-0.57,0.57V10.025z M184.701,19.322c0,0.321,0.248,0.569,0.57,0.569h2.923c0.322,0,0.57-0.248,0.57-0.569
		v-1.17c0-0.307-0.248-0.57-0.57-0.57h-2.923c-0.322,0-0.57,0.264-0.57,0.57V19.322z"/>
</g>
<g>
	<path opacity="0.3" fill="#D53330" d="M9.328,8.241c0,0,0.966-3.59,5.382-3.59c2.677,0,5.685,2.541,5.685,2.541
		s6.372,0.411,7.452,6.023c0.966,5.023-5.064,8.211-8.735,6.665c0,0-3.598-1.216-7.821-4.942c0,0-6.982-5.672-6.674,1.192
		c0.101,2.26,3.69,2.68,5.677,2.777c0,0,0.517,1.615,1.925,2.38c1.408,0.766,4.534,0.576,5.362-1.535l1.8,1.08
		c0,0-1.635,3.56-5.278,3.353s-5.547-2.691-5.547-2.691s-6.098,0.151-7.39-5.361c-0.699-2.981,0.88-6.072,3.944-7.231
		s7.089,0.835,8.828,2.553s5.382,3.767,6.023,4.036c0.642,0.269,4.203,2.216,4.347-2.525c0.021-0.683-0.925-3.409-5.81-2.953
		c0,0-0.673-2.629-3.505-2.905c-2.281-0.222-3.305,0.945-3.74,1.953L9.328,8.241z"/>
	<linearGradient id="SVGID_1_" gradientUnits="userSpaceOnUse" x1="4.5178" y1="13.6347" x2="10.3784" y2="24.9811">
		<stop  offset="0" style="stop-color:#8F1F22"/>
		<stop  offset="0.0811" style="stop-color:#A71E20"/>
		<stop  offset="0.1792" style="stop-color:#BD1D1D"/>
		<stop  offset="0.2786" style="stop-color:#CE1C1A"/>
		<stop  offset="0.3794" style="stop-color:#D71B18"/>
		<stop  offset="0.4836" style="stop-color:#DA1A17"/>
		<stop  offset="0.9754" style="stop-color:#D12D33"/>
	</linearGradient>
	<path fill="url(#SVGID_1_)" d="M7.092,12.745c0,0-6.092-1.523-4.953,5.612c0,0,1.473,3.024,6.453,3.184
		c0,0,2.621,2.998,6.233,2.721c0,0-4.13-1.331-4.447-5.457c0,0-4.002,0.257-5.106-1.739C4.502,15.675,5.183,12.789,7.092,12.745z"/>
	<linearGradient id="SVGID_2_" gradientUnits="userSpaceOnUse" x1="18.3471" y1="20.1865" x2="15.638" y2="24.4465">
		<stop  offset="0" style="stop-color:#922023"/>
		<stop  offset="0.4836" style="stop-color:#DA1A17"/>
		<stop  offset="0.9754" style="stop-color:#EB6767"/>
	</linearGradient>
	<path fill="url(#SVGID_2_)" d="M18.079,20.052l1.302,0.781c0,0-1.909,3.661-5.091,3.433C14.29,24.266,17.375,24.234,18.079,20.052z
		"/>
	<linearGradient id="SVGID_3_" gradientUnits="userSpaceOnUse" x1="16.1366" y1="6.064" x2="26.2315" y2="14.7111">
		<stop  offset="0" style="stop-color:#8E0B0F"/>
		<stop  offset="0.0112" style="stop-color:#940D12"/>
		<stop  offset="0.0539" style="stop-color:#A61118"/>
		<stop  offset="0.1028" style="stop-color:#B4141C"/>
		<stop  offset="0.1601" style="stop-color:#BE141F"/>
		<stop  offset="0.2309" style="stop-color:#C51520"/>
		<stop  offset="0.3302" style="stop-color:#C91521"/>
		<stop  offset="0.6059" style="stop-color:#CA1521"/>
		<stop  offset="0.6702" style="stop-color:#CF2C2A"/>
		<stop  offset="0.803" style="stop-color:#DB5448"/>
		<stop  offset="0.9915" style="stop-color:#EF8E8D"/>
		<stop  offset="1" style="stop-color:#F09090"/>
	</linearGradient>
	<path fill="url(#SVGID_3_)" d="M18.498,10.014c0,0,2.997-0.342,4.621,0.93c1.624,1.271,1.472,5.207-1.012,5.116
		c0,0,2.967,0.985,4.678-1.968c0,0,1.333-3.131-1.695-5.195c-2.556-1.742-4.695-1.705-4.695-1.705s-1.918-2.344-5.251-2.594
		C15.145,4.599,18.341,5.751,18.498,10.014"/>
	<linearGradient id="SVGID_4_" gradientUnits="userSpaceOnUse" x1="27.7483" y1="14.0837" x2="17.7773" y2="14.3801">
		<stop  offset="0" style="stop-color:#A11A16"/>
		<stop  offset="0.0936" style="stop-color:#BA1F1A"/>
		<stop  offset="0.1989" style="stop-color:#CF211C"/>
		<stop  offset="0.301" style="stop-color:#DD201B"/>
		<stop  offset="0.3976" style="stop-color:#E51F1A"/>
		<stop  offset="0.4828" style="stop-color:#E71F19"/>
		<stop  offset="1" style="stop-color:#F08F90"/>
	</linearGradient>
	<path fill="url(#SVGID_4_)" d="M26.323,10.014c0,0,2.336,3.447-0.962,5.613c0,0-1.424,0.843-3.254,0.433
		c-1.757-0.394-1.55-0.102-6.301-3.021c0,0,3.29,3.556,6.398,4.766c0,0,3.588,1.617,5.12-1.05
		C29.352,13.223,26.323,10.014,26.323,10.014z"/>
	<linearGradient id="SVGID_5_" gradientUnits="userSpaceOnUse" x1="23.1789" y1="21.9284" x2="3.8162" y2="8.2863">
		<stop  offset="0" style="stop-color:#621C20"/>
		<stop  offset="0.0148" style="stop-color:#671C20"/>
		<stop  offset="0.1193" style="stop-color:#891D22"/>
		<stop  offset="0.2245" style="stop-color:#A41C21"/>
		<stop  offset="0.3293" style="stop-color:#B81A20"/>
		<stop  offset="0.4336" style="stop-color:#C3181F"/>
		<stop  offset="0.5369" style="stop-color:#C7171E"/>
		<stop  offset="0.9754" style="stop-color:#F08F90"/>
	</linearGradient>
	<path fill="url(#SVGID_5_)" d="M27.077,17.124c0,0-2.104,3.5-6.111,3.145c-4.007-0.354-7.981-4.249-7.981-4.249
		s-2.208-2.839-6.348-5.13c0,0-4.388-1.325-5.579,3.004c0,0,0.763-5.332,6.27-5.332c3.18,0,5.29,1.859,7.148,3.308
		c1.794,1.399,4.679,4.133,4.679,4.133c-0.356-0.266,2.389,1.838,3.827,2.067C24.331,18.286,25.713,18.556,27.077,17.124z"/>
	<linearGradient id="SVGID_6_" gradientUnits="userSpaceOnUse" x1="8.999" y1="14.7453" x2="-1.1077" y2="14.5347">
		<stop  offset="0" style="stop-color:#922023"/>
		<stop  offset="0.4836" style="stop-color:#DA1A17"/>
		<stop  offset="0.9754" style="stop-color:#E8405C"/>
	</linearGradient>
	<path fill="url(#SVGID_6_)" d="M15.036,17.706c0,0-6.406-6.654-8.992-6.982c-2.498-0.316-5.133,0.58-5.042,4.379
		c0,0,0.057,1.949,1.274,3.502c0,0-0.772-4.431,1.408-5.479c0,0,1.67-0.98,3.843-0.257c2.174,0.723,3.548,2.009,4.946,3.064
		S15.036,17.706,15.036,17.706z"/>
	<path fill="none" d="M15.036,17.706"/>
	<linearGradient id="SVGID_7_" gradientUnits="userSpaceOnUse" x1="10.3772" y1="21.5148" x2="18.0791" y2="21.5148">
		<stop  offset="0" style="stop-color:#791418"/>
		<stop  offset="0.1482" style="stop-color:#9E161B"/>
		<stop  offset="0.3045" style="stop-color:#BF131A"/>
		<stop  offset="0.4383" style="stop-color:#D30E19"/>
		<stop  offset="0.5328" style="stop-color:#D90B18"/>
		<stop  offset="1" style="stop-color:#EC7793"/>
	</linearGradient>
	<path fill="url(#SVGID_7_)" d="M10.377,18.804c0,0,0.035,4.893,4.266,5.42c0,0,2.794,0.196,3.436-4.173l-0.498-0.299
		c0,0-0.698,1.885-3.637,1.921C13.944,21.674,12.15,22.04,10.377,18.804z"/>
	<linearGradient id="SVGID_8_" gradientUnits="userSpaceOnUse" x1="11.2268" y1="7.3065" x2="18.4983" y2="7.3065">
		<stop  offset="0" style="stop-color:#6E0605"/>
		<stop  offset="0.038" style="stop-color:#7B0D0B"/>
		<stop  offset="0.1463" style="stop-color:#9B1616"/>
		<stop  offset="0.2485" style="stop-color:#B0181B"/>
		<stop  offset="0.3416" style="stop-color:#BE181D"/>
		<stop  offset="0.4228" style="stop-color:#C5171E"/>
		<stop  offset="0.4828" style="stop-color:#C7171E"/>
		<stop  offset="1" style="stop-color:#EA5453"/>
	</linearGradient>
	<path fill="url(#SVGID_8_)" d="M11.254,9.062c0,0-0.601-4.425,3.891-4.463c1.366-0.012,2.267,1.534,2.713,2.519
		c0.623,1.373,0.64,2.897,0.64,2.897s-0.987-2.908-3.802-2.962C11.881,6.999,11.254,9.062,11.254,9.062z"/>
	<linearGradient id="SVGID_9_" gradientUnits="userSpaceOnUse" x1="9.2339" y1="9.0817" x2="13.5639" y2="5.3218">
		<stop  offset="0" style="stop-color:#F6BABB"/>
		<stop  offset="0.3363" style="stop-color:#EB614B"/>
		<stop  offset="0.5172" style="stop-color:#E72722"/>
		<stop  offset="0.6287" style="stop-color:#DA2321"/>
		<stop  offset="0.8751" style="stop-color:#BF1E22"/>
		<stop  offset="1" style="stop-color:#B41E23"/>
	</linearGradient>
	<path fill="url(#SVGID_9_)" d="M11.249,8.98c0,0-0.664-3.6,3.696-4.381c0,0-4.292-0.277-5.617,3.642l1.925,0.821L11.249,8.98z"/>
</g>
<path fill="#FFFFFF" d="M32.45,10.977c0,0,0.159-0.649,0.89-0.645c0,0,0.673-0.014,0.911,0.655v5.009c0,0-0.952,0.869-1.801-0.021
	V10.977z"/>
<path fill="#FFFFFF" d="M81.894,7.741c-0.408,0-0.74,0.332-0.74,0.74v2.093l-0.315-0.144c-0.403-0.184-0.832-0.278-1.277-0.278
	c-1.694,0-3.072,1.378-3.072,3.072c0,1.694,1.378,3.072,3.072,3.072c0.444,0,0.874-0.093,1.277-0.278
	c1.091-0.5,1.795-1.596,1.795-2.794V8.481C82.634,8.073,82.302,7.741,81.894,7.741 M81.154,13.267
	c-0.031,0.876-0.73,1.551-1.593,1.551c-0.879,0-1.594-0.715-1.594-1.594c0-0.879,0.715-1.594,1.594-1.594
	c0.862,0,1.562,0.676,1.592,1.538c0.001,0.027,0.002,0.042,0.002,0.056C81.156,13.239,81.155,13.253,81.154,13.267"/>
<path fill="#FFFFFF" d="M41.563,11.309c-0.125-0.019-0.254-0.029-0.382-0.029h-2.182c-0.571-0.002-1.032-0.464-1.032-1.029
	c0-0.568,0.462-1.029,1.029-1.029h3.954c0.408,0,0.74-0.332,0.74-0.74c0-0.408-0.332-0.74-0.74-0.74h-3.954
	c-1.108,0-2.072,0.711-2.398,1.769c-0.074,0.239-0.111,0.488-0.111,0.741c0,0.252,0.038,0.502,0.111,0.741
	c0.282,0.913,1.073,1.596,2.016,1.739c0.123,0.019,0.25,0.028,0.378,0.029h2.189c0.568,0,1.029,0.462,1.029,1.029
	c0,0.567-0.462,1.029-1.029,1.029h-3.952c-0.409,0-0.741,0.332-0.741,0.74c0,0.408,0.332,0.74,0.74,0.74h3.952
	c1.108,0,2.072-0.711,2.398-1.769c0.074-0.239,0.111-0.488,0.111-0.741c0-0.253-0.037-0.503-0.111-0.741
	C43.297,12.136,42.506,11.453,41.563,11.309"/>
<path fill="#FFFFFF" d="M49.126,11.309c-0.125-0.019-0.254-0.029-0.382-0.029h-2.183c-0.571-0.002-1.032-0.464-1.032-1.029
	c0-0.568,0.462-1.029,1.029-1.029h3.954c0.408,0,0.74-0.332,0.74-0.74c0-0.408-0.332-0.74-0.74-0.74h-3.954
	c-1.108,0-2.072,0.711-2.399,1.769c-0.074,0.239-0.111,0.489-0.111,0.741c0,0.252,0.037,0.501,0.111,0.741
	c0.282,0.913,1.073,1.595,2.016,1.739c0.123,0.019,0.25,0.028,0.378,0.029h2.19c0.567,0,1.029,0.462,1.029,1.029
	c0,0.567-0.462,1.029-1.029,1.029h-3.952c-0.408,0-0.741,0.332-0.741,0.74c0,0.408,0.332,0.74,0.74,0.74h3.952
	c1.108,0,2.071-0.711,2.398-1.769c0.074-0.238,0.111-0.488,0.111-0.741s-0.037-0.503-0.111-0.741
	C50.86,12.136,50.069,11.453,49.126,11.309"/>
<path fill="#FFFFFF" d="M58.541,13.843c-0.168,0-0.327,0.056-0.459,0.16c-0.017,0.016-0.034,0.032-0.051,0.047l-0.025,0.023
	c-0.52,0.481-1.194,0.745-1.898,0.745c-1.544,0-2.8-1.256-2.8-2.8c0-1.544,1.256-2.8,2.8-2.8c0.648,0,1.268,0.223,1.768,0.632
	l0.006-0.005l0.145,0.134c0.139,0.133,0.321,0.206,0.512,0.206c0.409,0,0.742-0.333,0.742-0.742c0-0.205-0.082-0.396-0.232-0.538
	l0-0.001c-0.799-0.757-1.843-1.174-2.942-1.174c-2.359,0-4.278,1.919-4.278,4.278c0,2.359,1.919,4.278,4.278,4.278
	c1.067,0,2.089-0.395,2.878-1.113c0.04-0.037,0.079-0.075,0.118-0.113c0.114-0.134,0.177-0.303,0.177-0.478
	C59.281,14.175,58.949,13.843,58.541,13.843"/>
<path fill="#FFFFFF" d="M65.548,10.152c-1.694,0-3.072,1.378-3.072,3.072c0,1.694,1.378,3.072,3.072,3.072
	c1.694,0,3.072-1.378,3.072-3.072C68.621,11.53,67.242,10.152,65.548,10.152 M65.548,14.818c-0.879,0-1.594-0.715-1.594-1.594
	c0-0.879,0.715-1.594,1.594-1.594s1.594,0.715,1.594,1.594C67.142,14.103,66.427,14.818,65.548,14.818"/>
<path fill="#FFFFFF" d="M74.89,10.152c-0.237,0-0.453,0.109-0.595,0.301c-0.095,0.129-0.145,0.281-0.145,0.439v2.284
	c0.001,0.02,0.002,0.034,0.002,0.048c0,0.015-0.001,0.029-0.002,0.043c-0.031,0.876-0.73,1.551-1.593,1.551
	c-0.863,0-1.562-0.676-1.591-1.538c-0.002-0.027-0.003-0.041-0.003-0.056c0-0.015,0.001-0.029,0.002-0.044l0.001-2.288
	c0-0.158-0.051-0.31-0.146-0.439c-0.141-0.191-0.358-0.301-0.595-0.301c-0.408,0-0.74,0.332-0.74,0.74l0,2.332
	c0,1.198,0.705,2.295,1.795,2.794c0.806,0.369,1.746,0.369,2.554,0c1.09-0.5,1.795-1.596,1.795-2.794v-2.332
	C75.63,10.484,75.297,10.152,74.89,10.152"/>
<path fill="#FFFFFF" d="M60.866,7.701c-0.408,0-0.74,0.332-0.74,0.74l0.001,0.02l-0.001,0v7.056c0,0.408,0.332,0.74,0.74,0.74
	c0.408,0,0.74-0.332,0.74-0.74V8.441C61.606,8.033,61.274,7.701,60.866,7.701"/>
<linearGradient id="SVGID_10_" gradientUnits="userSpaceOnUse" x1="596.3356" y1="20.6477" x2="607.4572" y2="20.6477" gradientTransform="matrix(-1.1517 0 0 1 769.4338 0)">
	<stop  offset="0" style="stop-color:#FFFFFF;stop-opacity:0"/>
	<stop  offset="1" style="stop-color:#FFFFFF"/>
</linearGradient>
<rect x="69.825" y="20.473" fill="url(#SVGID_10_)" width="12.809" height="0.349"/>
<linearGradient id="SVGID_11_" gradientUnits="userSpaceOnUse" x1="-116.13" y1="20.7357" x2="-104.9003" y2="20.7357" gradientTransform="matrix(1.1517 0 0 1 165.867 0)">
	<stop  offset="0" style="stop-color:#FFFFFF;stop-opacity:0"/>
	<stop  offset="1" style="stop-color:#FFFFFF"/>
</linearGradient>
<rect x="32.12" y="20.56" fill="url(#SVGID_11_)" width="12.933" height="0.352"/>
<g>
	<g>
		<path fill="#FFFFFF" d="M59.055,22.269c-0.019,0.06-0.02,0.152,0.166,0.152h2.684c0.063,0,0.121-0.072,0.095-0.132l-0.515-1.298
			h0.39l0.567,1.441c0.019,0.134-0.077,0.321-0.226,0.321h-3.438c-0.163-0.057-0.207-0.29-0.138-0.403l0.753-2.002h-0.896v-0.334
			h3.939v0.334h-2.684"/>
		<rect x="58.619" y="18.379" fill="#FFFFFF" width="3.647" height="0.292"/>
		<path fill="#FFFFFF" d="M56.974,22.396h-3.026c-0.355,0-0.644-0.306-0.644-0.647v-2.458h-0.402v2.458
			c0,0.554,0.469,1.005,1.046,1.005h3.026V22.396z"/>
		<rect x="52.907" y="18.345" fill="#FFFFFF" width="0.403" height="0.578"/>
		<path fill="#FFFFFF" d="M56.507,19.231h-0.314l0.492-0.478c0.227-0.195,0.097-0.43-0.203-0.407H53.93v0.264h2.356
			c0.058,0,0.087,0.046,0.043,0.083l-0.584,0.538h-0.753l-0.286-0.407h-0.391l0.286,0.407h-0.415c-0.179,0-0.319,0.144-0.319,0.254
			v2.445h0.367v-0.715h0.932v0.715h0.367v-0.715h0.932v0.326c0,0.097-0.039,0.134-0.14,0.134h-0.198v0.264h0.381
			c0.179,0,0.323-0.139,0.323-0.368v-2.087C56.831,19.375,56.686,19.231,56.507,19.231z M55.165,20.951h-0.932v-0.574h0.932V20.951z
			 M55.165,20.112h-0.932v-0.412c0-0.097,0.082-0.176,0.183-0.176h0.748V20.112z M56.464,20.951h-0.932v-0.574h0.932V20.951z
			 M56.464,20.112h-0.932v-0.589h0.748c0.101,0,0.183,0.079,0.183,0.176V20.112z"/>
		<path fill="#FFFFFF" d="M50.288,20.756c-0.204,0.785-0.492,1.42-0.903,1.997l-0.022,0.031l-0.318-0.243l0.022-0.03
			c0.543-0.756,0.859-1.702,1.044-3.009h0.005h0.407c0,0-0.081,0.533-0.098,0.622l1.169,2.484l-0.354,0.178L50.288,20.756z"/>
		<path fill="#FFFFFF" d="M48.189,22.764v-1.049l-0.806,0.266l-0.111-0.364l0.917-0.301v-0.731h-0.756
			c-0.088,0-0.155-0.081-0.141-0.17l0.345-1.244h-0.35v-0.311h0.419l0.135-0.531h0.39l-0.14,0.531h1.182l-0.105,0.311h-1.142
			l-0.303,1.033c-0.004,0.027,0.016,0.051,0.042,0.051h0.423v-0.754h0.395v0.754h0.692l0,0.331h-0.692v0.607l0.711-0.233
			l0.111,0.369l-0.822,0.267v1.168H48.189z"/>
		<path fill="#FFFFFF" d="M51.126,19.23l-0.197,0.657h0.421l0.243-0.743c0.045-0.141-0.058-0.287-0.203-0.287h-1.491l0.152-0.522
			h-0.389l-0.276,0.837h1.7C51.115,19.172,51.136,19.202,51.126,19.23z"/>
	</g>
	<path fill="#FFFFFF" d="M66.821,22.438h0.375c0.16,0,0.256-0.043,0.256-0.203v-3.306c0-0.165-0.125-0.232-0.285-0.232h-2.824
		c-0.16,0-0.285,0.067-0.285,0.232v3.859h-0.346v-3.976c0-0.346,0.28-0.461,0.631-0.461h2.824c0.346,0,0.631,0.116,0.631,0.461v3.51
		c0,0.346-0.227,0.456-0.573,0.456h-0.404V22.438z M64.507,19.218l0.546,1.002c0.125-0.326,0.225-0.671,0.295-1.037l0.33,0.065
		c-0.09,0.486-0.23,0.936-0.411,1.362l0.476,0.861l-0.295,0.165l-0.356-0.646c-0.19,0.376-0.416,0.731-0.666,1.067l-0.275-0.2
		c0.285-0.386,0.536-0.796,0.736-1.237l-0.676-1.237L64.507,19.218z M66.08,19.168l0.511,1.077c0.13-0.336,0.23-0.686,0.3-1.062
		l0.331,0.065c-0.095,0.506-0.24,0.972-0.431,1.412l0.576,1.207l-0.305,0.15l-0.461-0.962c-0.18,0.351-0.396,0.686-0.631,1.002
		l-0.275-0.2c0.28-0.376,0.521-0.771,0.721-1.197l-0.636-1.342L66.08,19.168z"/>
</g>
<g>
	<linearGradient id="SVGID_12_" gradientUnits="userSpaceOnUse" x1="35.9364" y1="7.675" x2="32.6862" y2="7.6755">
		<stop  offset="0" style="stop-color:#EB6767"/>
		<stop  offset="0.4828" style="stop-color:#E83422"/>
		<stop  offset="1" style="stop-color:#D70C18"/>
	</linearGradient>
	<path fill="url(#SVGID_12_)" d="M35.844,5.926v2.38c0,0-1.573-0.58-3.167,1.118C32.677,9.424,31.787,5.926,35.844,5.926z"/>
	<linearGradient id="SVGID_13_" gradientUnits="userSpaceOnUse" x1="32.6773" y1="8.538" x2="35.8443" y2="8.538">
		<stop  offset="0" style="stop-color:#E84340"/>
		<stop  offset="1" style="stop-color:#BF151B"/>
	</linearGradient>
	<path fill="url(#SVGID_13_)" d="M32.677,9.424c0.543-2.111,3.167-1.749,3.167-1.749v0.631C35.844,8.307,34.297,7.701,32.677,9.424"
		/>
</g>
</svg>
