<?xml version="1.0" encoding="utf-8"?>
<!-- Generator: Adobe Illustrator 17.0.0, SVG Export Plug-In . SVG Version: 6.00 Build 0)  -->
<!DOCTYPE svg PUBLIC "-//W3C//DTD SVG 1.1//EN" "http://www.w3.org/Graphics/SVG/1.1/DTD/svg11.dtd">
<svg version="1.1" id="图层_1" xmlns="http://www.w3.org/2000/svg"  x="0px" y="0px"
	 width="72px" height="72px" viewBox="0 0 72 72" enable-background="new 0 0 72 72" xml:space="preserve">
<rect fill="#EFEFEF" width="72" height="72"/>
<g>
	<path fill="#FFFFFF" d="M32.476,41.534l2.595-2.595v6.118c0,0.513,0.416,0.929,0.929,0.929s0.929-0.416,0.929-0.929v-6.118
		l2.595,2.595c0.363,0.363,0.951,0.363,1.314,0c0.363-0.363,0.363-0.951,0-1.314l-4.18-4.18c-0.043-0.043-0.091-0.082-0.143-0.117
		c-0.022-0.014-0.046-0.025-0.069-0.037c-0.03-0.016-0.059-0.035-0.091-0.049c-0.03-0.012-0.062-0.019-0.093-0.029
		c-0.027-0.008-0.052-0.018-0.08-0.024c-0.06-0.011-0.121-0.017-0.182-0.017s-0.122,0.006-0.182,0.018
		c-0.028,0.006-0.053,0.016-0.08,0.024c-0.031,0.009-0.062,0.016-0.093,0.029c-0.032,0.014-0.061,0.032-0.091,0.049
		c-0.023,0.012-0.047,0.023-0.069,0.037c-0.051,0.035-0.099,0.074-0.142,0.117l-4.18,4.18c-0.363,0.363-0.363,0.951,0,1.314
		C31.525,41.897,32.113,41.897,32.476,41.534"/>
	<path fill="#FFFFFF" d="M44.361,31.587c-0.236,0-0.517,0.037-0.785,0.086c-0.972-3.331-4.017-5.659-7.576-5.659
		c-3.56,0-6.605,2.328-7.577,5.659c-0.268-0.049-0.548-0.086-0.784-0.086c-2.817,0-5.11,2.292-5.11,5.109s2.293,5.109,5.11,5.109
		l0.929,0c0.513,0,0.929-0.416,0.929-0.929c0-0.513-0.416-0.929-0.929-0.929h0l-0.929,0c-1.793,0-3.251-1.459-3.251-3.251
		c0-1.792,1.459-3.251,3.251-3.251c0.128,0,0.336,0.032,0.554,0.075v0.854c0,0.513,0.416,0.929,0.929,0.929
		c0.513,0,0.929-0.416,0.929-0.929v-1.498c0.499-2.903,2.99-5.005,5.948-5.005c2.96,0,5.451,2.104,5.949,5.01v1.492
		c0,0.513,0.416,0.929,0.929,0.929c0.513,0,0.929-0.416,0.929-0.929V33.52c0.218-0.044,0.425-0.075,0.554-0.075
		c1.792,0,3.251,1.459,3.251,3.251c0,1.792-1.459,3.251-3.251,3.251l-0.929,0h0c-0.513,0-0.929,0.416-0.929,0.929
		c0,0.513,0.415,0.929,0.929,0.929l0.929,0c2.817,0,5.109-2.292,5.109-5.109S47.178,31.587,44.361,31.587"/>
</g>
</svg>
